<svg width="205" height="88" viewBox="0 0 105 44" fill="none" xmlns="http://www.w3.org/2000/svg">
<g clip-path="url(#clip0_384_119)">
<path d="M37.7578 40.0107L35.5248 14.7107C35.3571 12.8049 33.7868 11.3667 31.8728 11.3667C31.4331 11.3667 31.0753 11.7242 31.0753 12.1642V16.1086C31.0753 16.4991 30.7802 16.8401 30.3906 16.8648C29.9634 16.8923 29.6087 16.5541 29.6087 16.1333V7.60832C29.6087 3.41273 26.1959 -1.52588e-05 22.0003 -1.52588e-05C17.8047 -1.52588e-05 14.392 3.41273 14.392 7.60832V11.3667H12.1278C10.2138 11.3667 8.64358 12.8049 8.47583 14.7107L6.24283 40.0107C6.05491 42.1488 7.74094 44 9.89575 44H34.1049C36.26 44 37.9457 42.1485 37.7578 40.0107ZM17.7837 39.1417H12.467C12.062 39.1417 11.7337 38.8133 11.7337 38.4083C11.7337 38.0033 12.062 37.675 12.467 37.675H17.7837C18.1886 37.675 18.517 38.0033 18.517 38.4083C18.517 38.8133 18.1886 39.1417 17.7837 39.1417ZM17.7837 35.475H12.467C12.062 35.475 11.7337 35.1466 11.7337 34.7417C11.7337 34.3367 12.062 34.0083 12.467 34.0083H17.7837C18.1886 34.0083 18.517 34.3367 18.517 34.7417C18.517 35.1466 18.1886 35.475 17.7837 35.475ZM28.142 11.3667H18.1228C17.6828 11.3667 17.3253 11.7242 17.3253 12.1642V16.1086C17.3253 16.4991 17.0302 16.8401 16.6406 16.8648C16.2134 16.8923 15.8587 16.5541 15.8587 16.1333V7.60832C15.8587 4.22215 18.6142 1.46665 22.0003 1.46665C25.3865 1.46665 28.142 4.22215 28.142 7.60832V11.3667Z" fill="#32C33B"/>
</g>
<path d="M51.904 33H55.456V19.704H60.592V16.512H46.768V19.704H51.904V33ZM71.0961 20.592V28.008L71.0721 27.936C71.0721 29.28 69.9441 30.336 68.4801 30.336C67.0881 30.336 66.1281 29.28 66.1281 27.744V20.592H62.7441V28.488C62.7441 31.296 64.6641 33.288 67.3521 33.288C68.9601 33.288 70.3521 32.568 71.0961 31.44V33H74.6001V20.592H71.0961ZM89.6783 20.592H85.6463L81.0383 25.944V16.224H77.5343V33H81.0383V29.952L82.5263 28.344L85.5983 33H89.6303L84.8543 26.088L89.6783 20.592ZM99.5493 20.592V28.008L99.5253 27.936C99.5253 29.28 98.3973 30.336 96.9333 30.336C95.5413 30.336 94.5813 29.28 94.5813 27.744V20.592H91.1973V28.488C91.1973 31.296 93.1173 33.288 95.8053 33.288C97.4133 33.288 98.8053 32.568 99.5493 31.44V33H103.053V20.592H99.5493Z" fill="#32C33B"/>
<defs>
<clipPath id="clip0_384_119">
<rect width="44" height="44" fill="white"/>
</clipPath>
</defs>
</svg>
